# xmcd
# 
# Track frame offsets:
#     150
#     15581
#     32230
#     48414
#     64912
#     80660
#     95387
#     111396
#     127141
#     142175
#     157602
#     174620
#     193429
# 
# Disc length: 2789
# 
# Revision: 1
# Processed by: cddbd v1.5.2PL0 Copyright (c) Steve Scherf et al.
# Submitted via: fre:ac v1.0.31
# 
DISCID=bc0ae30d
DTITLE=Kutless - Believer
DYEAR=2012
DGENRE=Hard Rock
TTITLE0=If It Ends Today
TTITLE1=Carry On
TTITLE2=All Yours
TTITLE3=Even If
TTITLE4=Hero
TTITLE5=Identity
TTITLE6=Need
TTITLE7=Come Back Home
TTITLE8=This Is Love
TTITLE9=Gravity
TTITLE10=I'm With You
TTITLE11=Believer
TTITLE12=Carry Me to the Cross
EXTD=
EXTT0=
EXTT1=
EXTT2=
EXTT3=
EXTT4=
EXTT5=
EXTT6=
EXTT7=
EXTT8=
EXTT9=
EXTT10=
EXTT11=
EXTT12=
PLAYORDER=
